<?xml version="1.0" encoding="UTF-8"?>
<svg id="Layer_1" xmlns="http://www.w3.org/2000/svg" version="1.1" viewBox="0 0 512 512">
  <!-- Generator: Adobe Illustrator 29.1.0, SVG Export Plug-In . SVG Version: 2.1.0 Build 142)  -->
  <defs>
    <style>
      .st0 {
        fill: #fff;
        fill-rule: evenodd;
      }
    </style>
  </defs>
  <path class="st0" d="M240.2,78.7c9.6,4,15.8,13.3,15.8,23.7v307.2c0,10.4-6.2,19.7-15.8,23.7-9.6,4-20.6,1.8-27.9-5.6l-94.9-94.9H51.2c-14.1,0-25.6-11.5-25.6-25.6v-102.4c0-14.1,11.5-25.6,25.6-25.6h66.2l94.9-94.9c7.3-7.3,18.3-9.5,27.9-5.5h0Z"/>
  <path class="st0" d="M314.7,186.7c10-10,26.2-10,36.2,0l33.1,33.1,33.1-33.1c10-10,26.2-10,36.2,0,10,10,10,26.2,0,36.2l-33.1,33.1,33.1,33.1c10,10,10,26.2,0,36.2s-26.2,10-36.2,0l-33.1-33.1-33.1,33.1c-10,10-26.2,10-36.2,0s-10-26.2,0-36.2l33.1-33.1-33.1-33.1c-10-10-10-26.2,0-36.2h0Z"/>
</svg>