<?xml version="1.0" encoding="UTF-8"?>
<svg id="Layer_1" xmlns="http://www.w3.org/2000/svg" version="1.1" viewBox="0 0 512 512">
  <!-- Generator: Adobe Illustrator 29.1.0, SVG Export Plug-In . SVG Version: 2.1.0 Build 142)  -->
  <defs>
    <style>
      .st0 {
        fill: #fff;
        fill-rule: evenodd;
      }
    </style>
  </defs>
  <path class="st0" d="M240.2,78.7c4.7,1.9,8.7,5.2,11.5,9.4,2.8,4.2,4.3,9.2,4.3,14.2v307.2c0,5.1-1.5,10-4.3,14.2-2.8,4.2-6.8,7.5-11.5,9.4s-9.8,2.4-14.8,1.5-9.5-3.4-13.1-7l-94.9-94.9H51.2c-6.8,0-13.3-2.7-18.1-7.5-4.8-4.8-7.5-11.3-7.5-18.1v-102.4c0-6.8,2.7-13.3,7.5-18.1,4.8-4.8,11.3-7.5,18.1-7.5h66.2l94.9-94.9c3.6-3.6,8.1-6,13.1-7,5-1,10.1-.5,14.8,1.5h0ZM375.2,75c4.8-4.8,11.3-7.5,18.1-7.5s13.3,2.7,18.1,7.5c23.8,23.7,42.7,52,55.5,83,12.9,31.1,19.5,64.4,19.4,98,0,33.6-6.6,66.9-19.4,98-12.9,31.1-31.7,59.3-55.5,83-4.8,4.7-11.3,7.2-18,7.2s-13.1-2.8-17.9-7.5-7.4-11.2-7.5-17.9,2.5-13.2,7.2-18c19-19,34.2-41.6,44.4-66.4,10.3-24.9,15.6-51.5,15.5-78.4,0-56.6-22.9-107.7-60-144.8-4.8-4.8-7.5-11.3-7.5-18.1s2.7-13.3,7.5-18.1h0ZM302.8,147.4c2.4-2.4,5.2-4.3,8.3-5.6,3.1-1.3,6.4-2,9.8-2s6.7.7,9.8,2c3.1,1.3,5.9,3.2,8.3,5.6,14.3,14.3,25.6,31.2,33.3,49.8,7.7,18.6,11.7,38.6,11.7,58.8,0,20.2-3.9,40.2-11.7,58.8-7.7,18.6-19,35.6-33.3,49.8-4.8,4.8-11.3,7.5-18.1,7.5s-13.3-2.7-18.1-7.5c-4.8-4.8-7.5-11.3-7.5-18.1s2.7-13.3,7.5-18.1c9.5-9.5,17.1-20.8,22.2-33.2,5.1-12.4,7.8-25.7,7.8-39.2,0-13.4-2.6-26.8-7.8-39.2-5.1-12.4-12.7-23.7-22.2-33.2-2.4-2.4-4.3-5.2-5.6-8.3-1.3-3.1-2-6.4-2-9.8s.7-6.7,2-9.8c1.3-3.1,3.2-5.9,5.6-8.3h0Z"/>
</svg>